# xmcd CD database file
#
# Track frame offsets:
#	150
#	14154
#	26626
#	40138
#	58769
#	71114
#	82737
#	94333
#	111493
#	123982
#	137493
#	154841
#	165805
#	180725
#	192125
#	201949
#
# Disc length: 2896 seconds
#
# Revision: 0
# Processed by: cddbd v1.5.1PL2 Copyright (c) Steve Scherf et al.
# Submitted via: CDex 1.50
#
DISCID=da0b4e10
DTITLE=Don Costa - Old Flames
DYEAR=2004
DGENRE=Country
TTITLE0=Old Flames
TTITLE1=Most Beautiful Girl In The World
TTITLE2=Leroy Brown
TTITLE3=Lady In Red
TTITLE4=Four In The Morning
TTITLE5=Ringer From The Top End
TTITLE6=Wings Of A Dove
TTITLE7=Me and Bobby McGee
TTITLE8=I Love A Rainy Night
TTITLE9=Devil Woman
TTITLE10=Pizzarico
TTITLE11=Stuck On You
TTITLE12=Betterman
TTITLE13=Dream Lover
TTITLE14=He'll Have To Go
TTITLE15=Good Hearted Woman
EXTD=YEAR: 2004
EXTT0=
EXTT1=
EXTT2=
EXTT3=
EXTT4=
EXTT5=
EXTT6=
EXTT7=
EXTT8=
EXTT9=
EXTT10=
EXTT11=
EXTT12=
EXTT13=
EXTT14=
EXTT15=
PLAYORDER=
